<?xml version="1.0" encoding="UTF-8"?>
<svg version="1.1" viewBox="0 0 2048 2048" width="512" height="512" xmlns="http://www.w3.org/2000/svg">
<path transform="translate(178,131)" d="m0 0h1689l28 2 20 4 18 6 18 8 17 10 13 10 10 9 7 6v2h2l9 11 9 12 8 13 10 21 7 21 3 13h2v1232l-2 1-5 20-6 17-9 19-7 11-10 14-12 13-5 5-12 11-18 12-18 10-21 8-20 5-24 3-644 1-5-1 18 73 15 59v3h82l14 2 11 4 11 7 8 7 9 13 5 13 1 5v21l-4 12-6 11-8 10-11 8-8 4-10 3-7 1h-655l-12-3-12-6-11-9-8-11-5-10-3-10-1-7v-8l3-15 8-16 9-10 9-7 13-6 16-3 83-1 7-26 20-80 7-27-650-1-19-2-21-5-19-7-16-8-12-7-12-9-11-9-14-14-11-14-9-14-10-19-7-19-4-15-3-12v-1222l2-6 6-23 10-24 8-14 11-16 10-11 7-8 11-10 18-13 16-9 18-8 21-6 14-3zm2 121-16 2-12 5-9 6-7 6-9 13-4 10-2 9-1 31v949l6 1h1799l2-1v-979l-3-13-8-15-8-9-14-9-11-4-14-2zm-59 1152-1 2v69l1 15 4 14 6 10 9 10 9 7 11 5 12 3 216 1h1326l162-1 15-4 12-7 10-9 7-10 5-12 2-9v-84zm823 256-3 7-31 124v4h228l-2-11-19-76-12-47-2-1z"/>
<path transform="translate(1150,451)" d="m0 0h577l17 2 12 5 13 9 8 9 7 12 4 14v21l-4 12-6 11-7 9-3 1v2l-11 7-12 5-11 2h-591l-12-3-12-6-11-9-8-11-5-10-3-10-1-7v-8l3-15 8-16 11-12 11-7 12-5z"/>
<path transform="translate(949,708)" d="m0 0h22l13 4 12 7 10 9 10 14 10 18 17 28 19 32 11 18 27 45 10 17 5 13 1 4v22l-5 15-9 16-17 28-13 22-7 11-6 11-10 16-19 32-13 21-5 9-9 11-10 8-13 6-12 3h-18l-12-3-11-6-10-8-8-10-7-14-3-14v-9l2-12 7-16 13-22 48-80 10-16 5-10-6-12-13-21-19-32-27-45-13-22-5-13-2-13 1-13 4-13 6-11 9-10 7-6 14-7z"/>
<path transform="translate(405,708)" d="m0 0h22l13 4 11 6 11 10 9 14 4 11 1 5v20l-4 14-10 18-17 28-13 22-7 11-6 11-6 9-6 11-12 20-2 3v6l9 15 13 22 54 90 5 12 2 8v20l-4 13-6 11-8 10-11 8-11 5-12 3h-17l-12-3-12-6-11-9-9-12-45-75-17-28-10-17-17-28-10-18-4-12-1-16 3-15 8-17 11-18 72-120 11-18 7-9 7-7 13-8z"/>
<path transform="translate(725,708)" d="m0 0h23l12 4 11 6 11 10 9 14 4 11 1 5v20l-5 19-78 260-14 46-5 13-9 13-12 10-13 6-12 3h-18l-11-3-12-6-11-9-8-11-6-12-2-8-1-11 2-15 9-31 17-57 69-230 5-13 7-12 10-10 13-8 9-3z"/>
<path transform="translate(1406,963)" d="m0 0h320l18 2 12 5 13 9 8 9 7 12 4 14v21l-4 12-6 11-7 9-10 8-10 5-10 3-7 1h-335l-12-3-12-6-11-9-8-11-5-10-3-10-1-7v-8l3-15 8-16 9-10 9-7 13-6 8-2z"/>
<path transform="translate(765,451)" d="m0 0h131l16 2 12 5 13 9 8 9 7 12 4 14v21l-4 12-6 11-7 9-10 8-13 6-13 3h-144l-12-3-12-6-11-9v-2h-2l-9-14-4-11-2-10v-9l3-15 8-16 9-10 9-7 13-6z"/>
<path transform="translate(1598,707)" d="m0 0h130l16 2 12 5 13 9 8 9 7 12 4 14v21l-4 12-6 11-7 9-3 1v2l-11 7-12 5-10 2h-144l-12-3-12-6-11-9-8-11-5-10-3-10-1-7v-8l3-15 8-16 9-10 9-7 13-6 8-2z"/>
<path transform="translate(317,451)" d="m0 0h131l16 2 12 5 13 9 8 9 7 12 4 14v21l-4 12-6 11-7 9-10 8-13 6-13 3h-144l-12-3-12-6-11-9-8-11-5-10-3-10-1-14 3-16 8-16 11-12 11-7 12-5z"/>
<path transform="translate(1214,707)" d="m0 0h129l17 2 12 5 13 9 8 9 7 12 4 14v21l-4 12-6 11-7 9-3 1v2l-11 7-12 5-10 2h-144l-12-3-12-6-12-10-7-10-5-10-3-10-1-14 3-16 8-16 9-10 9-7 13-6 8-2z"/>
</svg>
