<?xml version="1.0" encoding="UTF-8"?>
<svg version="1.1" viewBox="0 0 2048 2048" width="512" height="512" xmlns="http://www.w3.org/2000/svg">
<path transform="translate(947,361)" d="m0 0h63l40 3 39 5 33 6 29 7 26 7 36 12 28 11 29 13 28 14 23 13 22 14 15 10 18 13 14 11 16 13 10 9 8 7 16 15 20 20 7 8 7 7 7 8 12 14 13 16 9 12 13 18 10 15 12 19 11 19 10 18 15 30 13 30 11 30 10 31 10 38 7 35 5 34 3 32 1 15v48l-6 84-1 18v59l3 26 5 23 7 20 8 18 10 17 11 15 12 15 13 17 9 13 8 15 7 20 3 15 1 11v14l-2 17-5 19-8 19-10 16-9 11-12 12-17 13-11 9-16 12-11 9-9 42-14 68-6 24-7 21-11 24-12 21-12 16-9 11-15 16-8 7-16 13-22 14-21 11-26 10-27 7-27 4h-39l-92-6h-4l-7 25-5 25-3 25-2 37-2 12-4 10-7 11-8 8-14 9-13 5h-25l-32-7-72-14-481-94-30-6-13-5-9-6-9-8-7-10-5-11-2-8-1-11 2-15 9-24 9-25 7-24 7-34 4-33 1-15v-37l-3-30-5-28-7-26-7-21-11-26-8-16-8-15-13-21-13-18-22-28-14-19-9-13-13-20-16-27-10-18-11-23-9-19-13-33-8-22-10-33-9-36-7-38-5-38-3-44v-46l3-44 5-38 6-32 7-31 9-31 12-35 11-27 12-27 13-26 14-24 12-20 10-15 12-17 12-16 13-16 8-10 11-12 7-8 11-12 33-33 8-7 14-12 16-13 20-15 16-11 17-11 20-12 23-13 23-11 22-10 33-13 36-12 34-9 31-7 37-6 34-4zm-1 120-34 3-33 5-36 8-31 9-23 8-27 11-26 12-28 15-23 14-22 15-12 9-14 11-13 11-15 13-33 33-7 8-12 14-12 15-13 18-14 21-11 18-9 16-12 23-12 27-9 24-10 30-10 40-6 33-4 34-2 36v28l2 32 4 33 5 29 10 40 8 25 10 28 14 32 11 22 14 24 9 15 13 19 14 19 12 15 13 17 14 20 12 19 14 25 11 22 12 28 12 35 8 29 7 36 4 33 1 15v47l-2 29-4 31-7 37-5 20v3l12 3 63 12 54 11h5v-524l-8-5-18-10-24-15-17-13-10-8-11-9-15-14-11-11-7-8-12-14-15-20-13-20-12-21-11-22-10-25-9-27-6-24-6-36-2-19-1-19v-13l2-19 4-19 5-16 7-16 7-13 9-13 11-14 10-10 11-9 13-9 14-8 15-7 19-6 22-4 15-1h12l20 2 16 3 18 6 18 8 18 11 14 11 12 11 9 11 9 12 10 17 8 18 6 20 3 17 1 12 1 271 24 3 16 1h77l23-2 12-2 2-3v-194l1-71 2-20 6-25 8-20 8-15 8-12 7-9 11-12 8-8 13-10 16-10 16-8 17-6 15-4 14-2 15-1h11l21 2 18 4 21 7 23 12 14 10 13 11 11 11 13 17 9 15 8 17 6 18 4 19 2 20v18l-3 37-5 30-7 28-11 33-11 25-10 20-13 22-9 13-10 14-9 11-12 14-15 16-2 1v2l-4 2-10 10-14 11-10 8-16 11-21 13-24 13-1 1-1 16v434l4-2 11-7 12-5 15-2 65 4 75 5h25l20-4 16-6 17-9 13-10 9-8 9-11 9-14 8-17 6-23 18-87 10-47 5-14 7-11 8-8 17-13 28-22 26-20 3-7-2-7-13-17-12-15-12-16-13-20-12-22-8-17-9-24-7-25-5-25-3-23-2-28v-40l3-55 4-52 1-16v-35l-3-35-5-33-6-29-8-30-11-33-14-34-14-29-10-18-14-23-10-15-10-14-12-16-11-13-9-11-7-7-7-8-26-26-8-7-14-12-18-14-18-13-15-10-21-13-18-10-23-12-27-12-29-11-28-9-32-8-31-6-31-4-28-2zm-221 447-10 3-10 6-5 4-8 11-5 12-1 6v22l2 21 5 26 7 24 9 22 8 16 9 16 11 16 18 22 17 17 10 8h1v-206l-2-13-7-14-6-7-10-7-10-4-4-1zm493 0-12 4-11 8-7 8-6 12-2 7-1 23v189h3l8-7 23-23 13-17 8-11 11-19 8-16 10-25 6-20 5-26 2-15v-33l-4-12-6-10-8-8-16-8-5-1zm-313 431-1 1v512l23 5 98 19 29 6h4v-543l-46 2h-62l-31-1z"/>
<path transform="translate(646,93)" d="m0 0h16l12 3 14 7 14 12 60 60 11 14 6 13 2 9v18l-3 12-7 14-9 10-9 7-8 4-13 4-8 1h-9l-17-4-12-7-10-9-4-3v-2l-4-2v-2l-4-2v-2l-4-2v-2l-4-2v-2h-2l-6-7-6-5-6-7-6-5-6-7-6-5-14-16-8-16-3-13v-11l4-16 6-12 8-10 10-8 12-6z"/>
<path transform="translate(1303,93)" d="m0 0h17l15 4 12 7 10 9 7 9 5 11 3 10v20l-4 14-7 12-9 11h-2l-2 4h-2v2h-2v2l-7 6-5 6-7 6-5 6-7 6-5 6-7 6-5 6-16 14-16 8-16 3h-8l-15-3-14-7-10-9-7-8-7-15-3-12v-12l4-16 6-12 9-11 69-69 14-9 12-4z"/>
<path transform="translate(968)" d="m0 0h29l12 5 11 7 8 7 9 13 5 13 1 4v115l-4 14-6 11-11 12-10 7-13 5-8 2h-16l-15-4-11-6-12-11-6-8-5-10-3-9-1-8v-105l4-16 7-13 11-12 9-6 10-5z"/>
<path transform="translate(1162,2047)" d="m0 0"/>
<path transform="translate(998)" d="m0 0"/>
</svg>
