<svg version="1.1" viewBox="0 0 2048 2048" width="512" height="512" xmlns="http://www.w3.org/2000/svg">
<path transform="translate(123,103)" d="m0 0h1800l25 2 17 4 15 6 14 8 13 10 7 6 9 11 7 10 9 17 8 23h1v1248h-3l-1 8-7 19-8 15-11 14-12 12-14 10-16 8-10 4-16 4-18 2h-707v163l27 8 19 8 18 10 16 11 14 12 9 8 7 8 12 15 12 19 8 16 8 21 5 16v4h120l15 2 9 4 9 7 6 8 4 9 1 5v12l-3 10-7 11-7 6-8 4-14 3h-965l-12-3-10-6-7-8-6-12-1-4v-14l4-12 7-9 7-6 8-4 15-3h123l1-7 7-23 12-26 13-20 9-12h2l2-4 12-13 11-9 8-7 22-14 23-11 15-5 15-4h3v-164h-708l-19-2-18-5-19-9-13-9-12-11-9-10-7-10-10-19-7-22-1-4v-1240h2l1-8 5-16 8-16 7-11 7-9h2l2-4 10-9 13-9 15-8 18-6 19-3zm-1 81-14 2-10 5-8 7-6 10-3 12-1 15v904l6 1h1879l2-1v-919l-3-12-7-11-7-6-8-4-15-3zm-41 1036-1 24v175l2 15 4 10 7 9 11 7 12 3h1816l11-3 9-5 8-8 5-10 2-9v-208zm1965 225m-1141 99-1 15v144l237 1 2-1v-159zm-41 240-22 2-19 5-13 6-14 8-13 11-11 11-9 13-7 12-4 9v2h544l-4-10-8-15-9-12-5-6-8-7-12-9-16-9-16-6-12-3-25-2z" fill="#020202"/>
<path transform="translate(1571,261)" d="m0 0h22l15 2 21 7 19 10 14 11 12 12 10 14 10 19 6 20 2 14v22l-3 18-6 18-10 19-10 13-3 4h-2l-2 4-14 11-13 8-13 6-19 6-16 2h-18l-21-3-20-7-4 2-315 315 1 8 6 20 3 26-3 24-6 20-10 20-11 14-3 4h-2l-2 4-14 11-13 8-13 6-20 6-15 2h-19l-16-2-21-7-16-8-12-9-10-9-7-7-11-15-8-15-6-18-3-16-1-17 3-23 7-22v-5l-77-77-11 3-16 5-16 2h-17l-17-2-13-4-12-4-4 2-155 155v6l6 18 3 18 1 13-3 23-6 20-10 20-13 16-1 2h-2l-2 4-14 11-13 8-13 6-20 6-15 2h-19l-16-2-21-7-16-8-12-9-12-11-9-10-9-14-7-14-5-15-3-16-1-18 3-22 6-19 8-16 7-11 10-11 5-5 10-9 11-7 16-8 15-5 18-3h24l18 3 17 6h6l156-156-1-8-6-19-3-22 1-17 3-16 5-16 8-16 7-11 10-11 5-5 10-9 11-7 16-8 15-5 17-3h26l17 3 20 7 19 11 13 11 10 10 10 14 10 19 6 20 2 14v22l-3 18-7 21 2 4 75 75h6l21-7 15-2h22l19 3 17 6h6l316-316-1-8-6-19-3-22 1-17 3-16 7-21 11-19 9-11 5-6 11-9 11-8 15-8 18-6zm5 81-13 4-11 9-7 12-2 9v11l3 10 7 11 9 7 10 4 13 1 12-3 10-6 7-7 5-9 2-10v-9l-3-11-7-11-9-7-9-4-5-1zm-720 240-11 3-11 8-7 10-3 8-1 5v11l3 10 7 11 9 7 6 3 10 2h8l12-3 11-7 8-11 3-8 1-6v-9l-3-11-7-11-9-7-9-4-5-1zm241 240-12 3-11 8-7 10-3 7-1 6v11l3 10 7 11 9 7 10 4 6 1h8l11-3 9-5 8-8 5-9 2-10v-9l-3-11-7-11-9-7-9-4-6-1zm-561 80-13 4-11 9-7 12-2 9v11l3 10 7 11 9 7 10 4 5 1h9l11-3 9-5 8-8 5-9 2-10v-9l-3-11-7-11-9-7-9-4-6-1z"/>
<path transform="translate(950,1303)" d="m0 0h152l17 2 9 4 9 7 6 8 4 10 1 4v12l-3 10-7 11-7 6-10 5-12 2h-165l-12-3-10-6-7-8-6-12-1-4v-13l4-13 7-9 7-6 11-5z" fill="#020202"/>
<path transform="translate(2047,198)" d="m0 0"/>
</svg>
