<svg version="1.1" viewBox="0 0 2048 2048" width="512" height="512" xmlns="http://www.w3.org/2000/svg">
<path transform="translate(1976)" d="m0 0h45v2l6 2 8 6 8 9 5 9v54l-2 3-8 68-7 48-8 46-10 49-11 49-11 43-15 53-15 47-14 41-13 35-11 28-17 40-17 38-23 47-10 19-14 26-14 24-13 22-10 16-30 45-13 19-9 12-13 17-10 13-13 16-9 11-12 14-10 11-9 11-9 9-1 2h-2l-2 4-50 50-8 7-7 7-8 7-14 13-11 9-11 10-5 4 1 5 10 18 10 21 11 28 8 27 5 23 3 23 1 12v29l-3 28-5 24-6 21-10 25-8 16-8 15-11 17-12 16-8 10-11 13-8 8-5 6-8 7-9 9-8 7-16 13-19 14-19 13-21 13-17 10-35 18-27 12-28 11-36 12-32 9-38 8-26 4-26 3-14 1h-29l-11-4-9-6v-2h-2l-7-11-4-13v-8l3-12 5-8 9-10 7-8 13-16 11-17 12-22 8-19 6-18 6-25 3-22 1-14v-27l-2-17-4-6-7-7-7 1-35 14-38 14-41 14-43 13-38 10-15 2h-13l-20-3-13-4h-2l-14 27-14 22-7 10-10 13-9 11-9 10-1 2h-2l-2 4-13 13-11 9-10 8-21 14-23 13-32 15-37 14-38 12-39 10-31 7-45 8-49 7-18 2h-16l-10-3-9-6-7-7-6-12-1-4v-23l5-39 8-49 8-39 10-40 9-30 12-35 14-33 8-17 11-20 11-17 14-19 15-16 13-13 8-7 12-10 16-12 15-10 18-11 23-12-1-8-4-16-1-8v-21l4-21 12-42 12-38 8-24 17-46 12-30 3-10-9-10-5-3-12-1h-38l-26 3-23 5-27 9-20 9-18 10-16 11-16 13-12 11-11 8-7 3-5 1h-15l-11-4-10-7-6-8-5-12-1-16 1-25 4-35 5-29 8-35 9-31 12-35 11-27 9-20 12-25 13-23 8-14 15-23 12-17 12-16 11-13 7-8 12-13 17-17 11-9 8-7 16-12 15-10 19-11 16-8 18-8 25-8 27-6 25-3h40l26 3 29 6 26 8 30 12 16 8 19 10 7 2 2-4 13-15 10-11 1-2h2l2-4 15-16 3-4h2l2-4 18-18 7-8 11-11h2l1-3 8-7 16-16 8-7 12-11 13-11 14-12 10-8 28-22 16-12 17-12 14-10 36-24 21-13 20-12 24-14 29-16 39-20 35-17 27-12 45-19 21-8 23-9 20-7 41-14 28-9 33-10 55-15 45-11 41-9 35-7 33-6 61-9 38-5zm-20 84-58 7-52 8-43 8-48 10-54 13-45 12-39 12-1 3 275 275 3-1 14-48 14-54 9-38 14-70 8-48 7-50 4-36v-3zm-430 101-30 11-36 15-41 18-41 20-22 11-12 7-14 7-24 14-22 13-24 15-33 22-17 12-19 14-13 10-12 9-12 10-10 8-10 9-11 9-13 12-8 7-9 9-8 7-28 28v2h-2v2h-2l-7 8-16 17-18 20-9 11-10 11-11 14-13 15-12 16-11 14-18 24-13 18-7 10-10 15-10 14-10 16-16 25-12 20-13 22-15 27-12 22-17 33-18 37 1 6 366 366h2l1 3 3 3 5-1 24-11 16-8 39-20 23-13 27-15 23-14 21-13 17-11 30-20 16-11 14-10 18-13 17-13 18-14 15-12 22-18 14-12 11-10 11-9 9-9 8-7 16-15 18-18 2-1v-2h2v-2h2v-2h2l7-8 13-13 7-8 3-3v-2h2l7-8 13-15 9-11 11-13 11-14 24-32 12-17 22-33 14-22 9-15 14-24 15-27 14-27 18-36 15-33 13-30 12-30 10-26v-5l-332-332zm-780 346-22 3-23 6-20 8-21 11-18 12-13 10-13 11-26 26-9 11-13 16-14 20-12 19-18 32-11 23-11 26-11 30-8 26-9 36 9-3 17-8 21-8 28-8 25-5 22-3 13-1h46l21 2 20 4 12 6 5 4 3-4 22-44 8-14 6-12 14-24 9-16 17-28 11-18 7-11 20-30 9-13 13-19 8-11 14-19 6-8v-2l-21-11-20-8-22-7-18-4-22-3zm-7 448-17 46-12 36-10 32-10 36-1 12 4 13 6 9 187 187 8 5 8 3 8 1 15-3 42-12 55-18 35-13 11-4-2-5-325-325zm742 189-10 8-19 14-19 13-11 8-27 18-17 11-19 12-28 17-24 14-27 15-16 9-16 8-15 8-19 9-3 3 7 10 5 15 3 17 1 13v46l-2 21-5 30-7 28-7 21-9 22-6 13v2l11-2 31-8 36-12 34-14 26-12 22-12 22-13 15-10 18-13 16-13 10-9 2-1v-2l4-2 16-16 9-11 8-9 14-20 10-18 8-17 8-24 4-19 2-21v-19l-4-31-6-23-9-25-9-20-5-9zm-817 79-21 9-18 10-14 9-19 14-10 9-8 7-5 4-7 8-9 10-9 13-13 22-11 23-13 34-11 35-9 35-8 36-5 28-4 24 12-1 39-7 28-6 40-10 36-11 32-12 28-13 21-12 14-10 14-12 12-12 9-11 13-16 13-20 12-22 8-19-1-5-131-131z"/>
<path transform="translate(1427,405)" d="m0 0h30l23 3 20 5 20 7 22 11 18 12 14 11 21 21 13 17 12 20 8 17 6 17 5 19 3 19 1 11v22l-3 24-5 21-6 18-12 25-9 14-9 12-9 10-7 8-12 11-18 13-15 9-21 10-22 7-17 4-24 3h-25l-23-3-21-5-17-6-22-10-19-12-14-11-12-11-8-8-9-11-11-15-12-22-8-19-6-20-4-21-1-9v-35l3-21 6-23 8-21 10-19 9-14 10-13 14-15 7-7 11-9 16-11 14-8 17-8 24-8 20-4zm7 81-16 2-18 5-16 8-10 6-10 8-7 6-7 8-10 14-8 16-5 14-3 13-1 8v24l3 16 5 16 8 16 7 11 12 14 13 11 16 10 16 7 22 5 9 1h17l18-3 17-5 16-8 11-7 13-11 8-8 10-14 8-15 6-18 3-15 1-15-1-16-4-19-6-16-9-16-10-13-12-12-14-10-17-9-15-5-14-3-10-1z"/>
<path transform="translate(650,1696)" d="m0 0 13 2 10 5 9 8 6 10 3 10v12l-4 12-8 11-272 272-11 7-6 3h-21l-12-6-9-8-7-12-2-7v-14l4-12 7-10h2l2-4 268-268 10-7 9-3z"/>
<path transform="translate(321,1697)" d="m0 0h19l10 4 9 7 7 9 4 10 1 4v12l-4 12-8 11-272 272-11 7-6 3h-21l-12-6-9-8-7-12-2-8v-12l4-13 7-10h2l2-4h2l2-4h2l2-4h2l2-4h2l2-4h2l2-4h2l2-4h2l2-4h2l2-4 236-236 11-7z"/>
<path transform="translate(304,1357)" d="m0 0h14l11 4 9 6 7 8 5 10 2 12-2 13-6 12-8 8-5 6-7 6-5 6-8 7-245 245-8 5-9 3-6 1h-8l-11-3-10-6-8-9-6-11v-24h2l1-5 7-10 7-7 6-7 6-5 5-6 7-6 5-6 7-6 5-6 7-6 5-6 7-6 5-6 7-6 5-6 7-6 5-6 7-6 5-6 7-6 5-6 7-6 5-6 7-6 5-6 7-6 5-6 7-6 5-6 7-6 5-6 7-6 6-7 6-5 7-8 64-64h2v-2l10-7z"/>
<path transform="translate(363,1074)" d="m0 0h9l9 2 11 6 8 8 5 9 3 9v13l-3 9-5 9-11 12-106 106-10 7-13 4h-12l-13-4-9-7-7-9-5-12v-16l4-11 7-10 113-113 8-6 8-4z"/>
<path transform="translate(926,1640)" d="m0 0h14l10 3 9 6 7 7 6 12 2 9-1 12-3 9-6 9-7 7-5 6-7 6-5 6-7 6-5 6-7 6-5 6-7 6-5 6-7 6-5 6-7 6-5 6-7 6-5 6-7 6-5 6-8 7-8 6-10 4-4 1h-12l-10-3-10-6-8-9-5-10-1-4v-17l4-11 7-9 80-80 5-6 7-6 5-6h2v-2h2v-2h2v-2h2v-2h2l2-4 11-9 10-5z"/>
<path transform="translate(1214,791)" d="m0 0 15 2 10 5 7 6 6 9 4 10v18l-5 12-11 13-50 50-11 8-11 4-13 1-12-3-9-6-5-5-4-5-4-8-2-7v-13l4-12 7-10 60-60 10-6z"/>
<path transform="translate(1040,961)" d="m0 0h13l12 4 9 7 7 8 4 8 2 8v11l-3 11-7 10-7 7-10 5-9 2h-11l-10-3-10-6-7-8-6-12-1-4v-16l5-12 6-8 9-7 9-4z"/>
<path transform="translate(366,2047)" d="m0 0 2 1z"/>
<path transform="translate(46,2047)" d="m0 0 2 1z"/>
<path transform="translate(2022)" d="m0 0"/>
</svg>
