<?xml version="1.0" encoding="UTF-8"?>
<svg version="1.1" viewBox="0 0 2048 2048" width="512" height="512" xmlns="http://www.w3.org/2000/svg">
<path transform="translate(1009)" d="m0 0h32l4 3 17 8 23 13 20 13 14 10 17 13 13 11 14 12 31 31 7 8 11 13 15 20 12 17 14 22 14 25 13 26 13 32 11 33 8 30 6 31 4 29 2 27 1 57 1 9 32 9 26 10 21 10 22 13 14 10 13 10 10 9 8 7 14 14v2h2l9 11 7 8 234 1 33 2 18 3 26 8 16 8 18 10 22 18 12 12 11 14 7 10 11 20 7 19 5 17 3 20 1 11 1 23v853l-1 32h59l17 2 12 5 10 7 6 5 8 11 8 16v54l-2 2-4 22-7 27-8 22-7 16-10 20-10 16-10 14-10 13-11 12-9 10-7 7-8 7-16 13-19 13-22 13-21 10-24 9-24 7-29 6-10 2h-1519l-2-2-26-5-26-7-26-10-25-12-20-12-14-10-14-11-15-14-7-6-7-8-5-5v-2h-2l-11-14-11-15-13-21-8-16-7-15-7-18-8-28-6-31-1-2v-52h2l1-6 7-13 11-12 11-7 12-5 14-2h61v-899l3-31 3-14 9-27 10-19 9-14 14-17 6-7 11-9 12-10 15-9 19-10 24-8 15-3 18-2 18-1 239-1 8-9 1-2h2l2-4 9-10 18-18 11-9 13-10 13-9 15-9 23-12 19-8 25-8 19-5 1-48 1-27 4-37 6-33 9-36 12-36 12-29 11-23 12-22 11-18 16-24 13-17 10-13 11-12 7-8 9-10 13-13h2v-2l11-9 13-12 20-15 15-11 22-14 21-12 15-8zm14 130-11 7-17 12-13 10-15 14-13 12-9 9-11 14-9 10-9 12-11 17-12 19-12 24-9 20-12 35-6 24-6 32-3 39-1 45v238l5 1h352l2-1v-282l-3-38-7-38-5-19-11-33-9-20-13-27-12-19-16-24-12-14-11-14-23-23-8-7-10-9-20-14-17-12zm-301 489-24 11-16 10-13 10-16 15-12 14-11 17-8 14-9 23-5 18-3 26-1 26v25l1 52 3-1 7-8 27-27 6-5 6-7 6-5 6-7 6-5 6-7 6-5 6-7 6-5 4-4v-2h2v-2h2v-2h2v-2l4-2 13-13v-145zm603 1-1 52v86l2 7 108 108h2v2l5 5h2v-98l-2-24-7-28-9-21-8-15-8-12-9-11-9-10-7-7-14-11-15-10-16-8-11-5zm-1030 108-12 2-12 5-13 10-8 10-6 12-3 14-1 37v869l120 1 3-1 4-36 5-24 7-23 10-23 10-18 8-12 8-11 12-14 1-3h2l4-4v-2l4-2 9-9 17-13 15-10 16-9 17-8 22-8 25-6 20-3 17-1h16l23 1 7-9 9-14 13-16 14-15 2-1v-2l4-2 11-10 18-13 24-14 23-10 26-8 30-6 2-3 4-44 7-84 12-141 1-18-14-29-10-21-32-64-11-23-5-11-5 1-178 178-13 9-8 4-9 3-7 1h-14l-15-4-11-6-10-9-8-11-5-11-2-10-1-12v-239l2-32 3-21v-4zm1266 0-2 1 3 27 1 15 1 32v190l-1 42-2 10-5 12-8 11-7 7-10 6-15 5-6 1h-14l-12-3-14-7-14-12-175-175-3 1-11 23-14 28-11 23-14 28-11 23-11 22 1 23 21 248 2 18 1 2 27 5 27 8 25 11 20 11 14 10 16 12 10 10h2l1 3 12 12 8 10 10 14 9 14 20-1h23l22 2 25 5 20 6 20 8 16 8 14 8 13 9 13 10 13 12 12 12 9 11 11 15 8 13 12 23 8 20 7 25 4 25 2 26 1 1 120 1 2-1v-905l-3-15-8-15-8-9-14-9-11-4-16-2zm-680 116 9 19 12 25 17 34 11 23 11 22h166l11-23 33-66 11-23 5-11zm79 244-2 14-7 81-10 119-7 83-3 21-5 13-7 11-10 9-16 8-11 3h-23l-24-1-21 3-17 6-12 6-13 9-11 9-9 11-7 9-9 16-10 26-7 13-9 10-13 8-12 4-15 2-13-2-27-8-13-2h-27l-19 4-12 4-21 11-11 9-13 12-12 17-8 16-6 17-3 20v8h1078l-1-12-3-19-6-16-8-16-11-15-9-9-14-11-10-6-15-7-18-5-11-2h-24l-15 2-28 8-5 1h-18l-14-4-12-7-8-7-8-11-10-25-7-16-9-14-9-11-12-11-15-10-19-9-18-5-9-1h-24l-9 1h-18l-12-3-12-6-11-9-8-11-5-11-3-14-7-79-15-178-4-46-1-5zm-829 720 4 10 8 17 11 17 7 9 10 11 5 5 13 12 13 9 15 9 20 9 15 5 20 4 21 2h1464l21-2 24-6 20-8 16-8 15-10 11-9 12-11 12-13 8-11 11-18 8-18 1-5z" fill="#010101"/>
<path transform="translate(1013,368)" d="m0 0h22l13 4 12 7 8 7 8 11 5 10 3 11v20l-4 13-6 11-8 10-8 6-14 7-13 3h-16l-12-3-12-6-11-9-8-11-5-10-3-10-1-11 2-15 5-13 7-11 9-9 11-7 11-4z"/>
</svg>
